REM DIRINDEX 1\2,1\3,1\4
REM DIRNAME folder01,folder02,folder03,folder04
TITLE ""
FILE "140 140_TOEFL_3900.mp3" MP3
  TRACK 01 AUDIO
    TITLE "2:cjc151_6088"
    INDEX 01 00:00:00
  TRACK 02 AUDIO
    TITLE "0:"
    INDEX 01 00:02:63
  TRACK 03 AUDIO
    TITLE "3:cjc151_6089"
    INDEX 01 00:04:40
  TRACK 04 AUDIO
    TITLE "0:"
    INDEX 01 00:08:68
  TRACK 05 AUDIO
    TITLE "2:cjc151_6090"
    INDEX 01 00:10:45
  TRACK 06 AUDIO
    TITLE "0:"
    INDEX 01 00:11:56
  TRACK 07 AUDIO
    TITLE "3:cjc151_6091"
    INDEX 01 00:13:35
  TRACK 08 AUDIO
    TITLE "0:"
    INDEX 01 00:17:37
  TRACK 09 AUDIO
    TITLE "2:cjc151_6092"
    INDEX 01 00:19:16
  TRACK 10 AUDIO
    TITLE "0:"
    INDEX 01 00:20:51
  TRACK 11 AUDIO
    TITLE "3:cjc151_6093"
    INDEX 01 00:22:29
  TRACK 12 AUDIO
    TITLE "0:"
    INDEX 01 00:26:38
  TRACK 13 AUDIO
    TITLE "2:cjc151_6094"
    INDEX 01 00:28:15
  TRACK 14 AUDIO
    TITLE "0:"
    INDEX 01 00:29:58
  TRACK 15 AUDIO
    TITLE "3:cjc151_6095"
    INDEX 01 00:31:35
  TRACK 16 AUDIO
    TITLE "0:"
    INDEX 01 00:36:23
  TRACK 17 AUDIO
    TITLE "2:cjc151_6096"
    INDEX 01 00:38:00
  TRACK 18 AUDIO
    TITLE "0:"
    INDEX 01 00:39:11
  TRACK 19 AUDIO
    TITLE "3:cjc151_6097"
    INDEX 01 00:40:66
  TRACK 20 AUDIO
    TITLE "0:"
    INDEX 01 00:45:24
  TRACK 21 AUDIO
    TITLE "2:cjc151_6098"
    INDEX 01 00:47:01
  TRACK 22 AUDIO
    TITLE "0:"
    INDEX 01 00:48:02
  TRACK 23 AUDIO
    TITLE "3:cjc151_6099"
    INDEX 01 00:49:59
  TRACK 24 AUDIO
    TITLE "0:"
    INDEX 01 00:53:51
  TRACK 25 AUDIO
    TITLE "2:cjc151_6100"
    INDEX 01 00:55:28
  TRACK 26 AUDIO
    TITLE "0:"
    INDEX 01 00:56:49
  TRACK 27 AUDIO
    TITLE "3:cjc151_6101"
    INDEX 01 00:58:28
  TRACK 28 AUDIO
    TITLE "0:"
    INDEX 01 01:02:26
  TRACK 29 AUDIO
    TITLE "2:cjc151_6102"
    INDEX 01 01:04:05
  TRACK 30 AUDIO
    TITLE "0:"
    INDEX 01 01:05:32
  TRACK 31 AUDIO
    TITLE "3:cjc151_6103"
    INDEX 01 01:07:10
  TRACK 32 AUDIO
    TITLE "0:"
    INDEX 01 01:11:07
  TRACK 33 AUDIO
    TITLE "2:cjc151_6104"
    INDEX 01 01:12:62
  TRACK 34 AUDIO
    TITLE "0:"
    INDEX 01 01:14:02
  TRACK 35 AUDIO
    TITLE "3:cjc151_6105"
    INDEX 01 01:15:56
  TRACK 36 AUDIO
    TITLE "0:"
    INDEX 01 01:19:50
  TRACK 37 AUDIO
    TITLE "2:cjc151_6106"
    INDEX 01 01:21:27
  TRACK 38 AUDIO
    TITLE "0:"
    INDEX 01 01:22:46
  TRACK 39 AUDIO
    TITLE "3:cjc151_6107"
    INDEX 01 01:24:26
  TRACK 40 AUDIO
    TITLE "0:"
    INDEX 01 01:28:37
  TRACK 41 AUDIO
    TITLE "2:cjc151_6108"
    INDEX 01 01:30:17
  TRACK 42 AUDIO
    TITLE "0:"
    INDEX 01 01:31:10
  TRACK 43 AUDIO
    TITLE "3:cjc151_6109"
    INDEX 01 01:32:64
  TRACK 44 AUDIO
    TITLE "0:"
    INDEX 01 01:35:29
  TRACK 45 AUDIO
    TITLE "2:cjc151_6110"
    INDEX 01 01:37:09
  TRACK 46 AUDIO
    TITLE "0:"
    INDEX 01 01:38:12
  TRACK 47 AUDIO
    TITLE "3:cjc151_6111"
    INDEX 01 01:39:64
  TRACK 48 AUDIO
    TITLE "0:"
    INDEX 01 01:44:42
  TRACK 49 AUDIO
    TITLE "2:cjc151_6112"
    INDEX 01 01:46:19
  TRACK 50 AUDIO
    TITLE "0:"
    INDEX 01 01:47:39
  TRACK 51 AUDIO
    TITLE "3:cjc151_6113"
    INDEX 01 01:49:18
  TRACK 52 AUDIO
    TITLE "0:"
    INDEX 01 01:53:37
  TRACK 53 AUDIO
    TITLE "2:cjc151_6114"
    INDEX 01 01:55:15
  TRACK 54 AUDIO
    TITLE "0:"
    INDEX 01 01:56:43
  TRACK 55 AUDIO
    TITLE "3:cjc151_6115"
    INDEX 01 01:58:21
  TRACK 56 AUDIO
    TITLE "0:"
    INDEX 01 02:01:39
  TRACK 57 AUDIO
    TITLE "2:cjc151_6116"
    INDEX 01 02:03:18
  TRACK 58 AUDIO
    TITLE "0:"
    INDEX 01 02:04:41
  TRACK 59 AUDIO
    TITLE "3:cjc151_6117"
    INDEX 01 02:06:18
  TRACK 60 AUDIO
    TITLE "0:"
    INDEX 01 02:10:24
  TRACK 61 AUDIO
    TITLE "2:cjc151_6118"
    INDEX 01 02:12:03
  TRACK 62 AUDIO
    TITLE "0:"
    INDEX 01 02:13:32
  TRACK 63 AUDIO
    TITLE "3:cjc151_6119"
    INDEX 01 02:15:09
  TRACK 64 AUDIO
    TITLE "0:"
    INDEX 01 02:19:70
  TRACK 65 AUDIO
    TITLE "2:cjc151_6120"
    INDEX 01 02:21:49
  TRACK 66 AUDIO
    TITLE "0:"
    INDEX 01 02:22:56
  TRACK 67 AUDIO
    TITLE "3:cjc151_6121"
    INDEX 01 02:24:36
  TRACK 68 AUDIO
    TITLE "0:"
    INDEX 01 02:28:39
  TRACK 69 AUDIO
    TITLE "2:cjc151_6122"
    INDEX 01 02:30:19
  TRACK 70 AUDIO
    TITLE "0:"
    INDEX 01 02:31:36
  TRACK 71 AUDIO
    TITLE "3:cjc151_6123"
    INDEX 01 02:33:17
  TRACK 72 AUDIO
    TITLE "0:"
    INDEX 01 02:36:70
  TRACK 73 AUDIO
    TITLE "2:cjc151_6124"
    INDEX 01 02:38:48
  TRACK 74 AUDIO
    TITLE "0:"
    INDEX 01 02:39:59
  TRACK 75 AUDIO
    TITLE "3:cjc151_6125"
    INDEX 01 02:41:38
  TRACK 76 AUDIO
    TITLE "0:"
    INDEX 01 02:45:50
  TRACK 77 AUDIO
    TITLE "2:cjc151_6126"
    INDEX 01 02:47:29
  TRACK 78 AUDIO
    TITLE "0:"
    INDEX 01 02:48:38
  TRACK 79 AUDIO
    TITLE "3:cjc151_6127"
    INDEX 01 02:50:18
  TRACK 80 AUDIO
    TITLE "0:"
    INDEX 01 02:53:06
  TRACK 81 AUDIO
    TITLE "2:cjc151_6128"
    INDEX 01 02:54:62
  TRACK 82 AUDIO
    TITLE "0:"
    INDEX 01 02:56:18
  TRACK 83 AUDIO
    TITLE "3:cjc151_6129"
    INDEX 01 02:57:70
  TRACK 84 AUDIO
    TITLE "0:"
    INDEX 01 03:01:55
  TRACK 85 AUDIO
    TITLE "2:cjc151_6130"
    INDEX 01 03:03:42
  TRACK 86 AUDIO
    TITLE "0:"
    INDEX 01 03:04:65
  TRACK 87 AUDIO
    TITLE "3:cjc151_6131"
    INDEX 01 03:06:44
  TRACK 88 AUDIO
    TITLE "0:"
    INDEX 01 03:11:26
